<mxfile host="65bd71144e">
    <diagram id="5rizViH1JVYwEJSfIJnj" name="Page-1">
        <mxGraphModel dx="1776" dy="852" grid="1" gridSize="10" guides="1" tooltips="1" connect="1" arrows="1" fold="1" page="1" pageScale="1" pageWidth="827" pageHeight="1169" math="0" shadow="0">
            <root>
                <mxCell id="0"/>
                <mxCell id="1" parent="0"/>
                <mxCell id="v_Ceavz3RcsRpmkH0pfm-34" value="" style="rounded=0;whiteSpace=wrap;html=1;" parent="1" vertex="1">
                    <mxGeometry x="984" y="713" width="136" height="75" as="geometry"/>
                </mxCell>
                <mxCell id="Ol54objo-PAGLz6OUJO4-2" value="User" style="swimlane;fontStyle=0;childLayout=stackLayout;horizontal=1;startSize=26;horizontalStack=0;resizeParent=1;resizeParentMax=0;resizeLast=0;collapsible=1;marginBottom=0;fillColor=#FFFFFF;" parent="1" vertex="1">
                    <mxGeometry x="150" y="240" width="140" height="78" as="geometry">
                        <mxRectangle x="810" y="460" width="60" height="26" as="alternateBounds"/>
                    </mxGeometry>
                </mxCell>
                <mxCell id="Ol54objo-PAGLz6OUJO4-3" value="+ ID: uint" style="text;strokeColor=none;align=left;verticalAlign=top;spacingLeft=4;spacingRight=4;overflow=hidden;rotatable=0;points=[[0,0.5],[1,0.5]];portConstraint=eastwest;fillColor=#FFFFFF;" parent="Ol54objo-PAGLz6OUJO4-2" vertex="1">
                    <mxGeometry y="26" width="140" height="26" as="geometry"/>
                </mxCell>
                <mxCell id="Ol54objo-PAGLz6OUJO4-4" value="+ Name: string" style="text;strokeColor=none;align=left;verticalAlign=top;spacingLeft=4;spacingRight=4;overflow=hidden;rotatable=0;points=[[0,0.5],[1,0.5]];portConstraint=eastwest;fillColor=#FFFFFF;" parent="Ol54objo-PAGLz6OUJO4-2" vertex="1">
                    <mxGeometry y="52" width="140" height="26" as="geometry"/>
                </mxCell>
                <mxCell id="Ol54objo-PAGLz6OUJO4-6" value="Room" style="swimlane;fontStyle=0;childLayout=stackLayout;horizontal=1;startSize=26;horizontalStack=0;resizeParent=1;resizeParentMax=0;resizeLast=0;collapsible=1;marginBottom=0;fillColor=#FFFFFF;" parent="1" vertex="1">
                    <mxGeometry x="150" y="50" width="140" height="78" as="geometry"/>
                </mxCell>
                <mxCell id="Ol54objo-PAGLz6OUJO4-7" value="+ ID: uint" style="text;strokeColor=none;align=left;verticalAlign=top;spacingLeft=4;spacingRight=4;overflow=hidden;rotatable=0;points=[[0,0.5],[1,0.5]];portConstraint=eastwest;fillColor=#FFFFFF;" parent="Ol54objo-PAGLz6OUJO4-6" vertex="1">
                    <mxGeometry y="26" width="140" height="26" as="geometry"/>
                </mxCell>
                <mxCell id="Ol54objo-PAGLz6OUJO4-8" value="+ Name: string" style="text;strokeColor=none;align=left;verticalAlign=top;spacingLeft=4;spacingRight=4;overflow=hidden;rotatable=0;points=[[0,0.5],[1,0.5]];portConstraint=eastwest;fillColor=#FFFFFF;" parent="Ol54objo-PAGLz6OUJO4-6" vertex="1">
                    <mxGeometry y="52" width="140" height="26" as="geometry"/>
                </mxCell>
                <mxCell id="Ol54objo-PAGLz6OUJO4-10" value="Casino" style="swimlane;fontStyle=0;childLayout=stackLayout;horizontal=1;startSize=26;horizontalStack=0;resizeParent=1;resizeParentMax=0;resizeLast=0;collapsible=1;marginBottom=0;fillColor=#FFFFFF;" parent="1" vertex="1">
                    <mxGeometry x="470" y="120" width="230" height="104" as="geometry"/>
                </mxCell>
                <mxCell id="Ol54objo-PAGLz6OUJO4-11" value="+ Gamers: map[*User]*Room" style="text;strokeColor=none;align=left;verticalAlign=top;spacingLeft=4;spacingRight=4;overflow=hidden;rotatable=0;points=[[0,0.5],[1,0.5]];portConstraint=eastwest;fillColor=#FFFFFF;" parent="Ol54objo-PAGLz6OUJO4-10" vertex="1">
                    <mxGeometry y="26" width="230" height="26" as="geometry"/>
                </mxCell>
                <mxCell id="Ol54objo-PAGLz6OUJO4-12" value="+ Rooms: map[*Room]map[*User]struct{}" style="text;strokeColor=none;align=left;verticalAlign=top;spacingLeft=4;spacingRight=4;overflow=hidden;rotatable=0;points=[[0,0.5],[1,0.5]];portConstraint=eastwest;fillColor=#FFFFFF;" parent="Ol54objo-PAGLz6OUJO4-10" vertex="1">
                    <mxGeometry y="52" width="230" height="26" as="geometry"/>
                </mxCell>
                <mxCell id="Ol54objo-PAGLz6OUJO4-13" value="+ Games: map[*Room]Game" style="text;strokeColor=none;align=left;verticalAlign=top;spacingLeft=4;spacingRight=4;overflow=hidden;rotatable=0;points=[[0,0.5],[1,0.5]];portConstraint=eastwest;fillColor=#FFFFFF;" parent="Ol54objo-PAGLz6OUJO4-10" vertex="1">
                    <mxGeometry y="78" width="230" height="26" as="geometry"/>
                </mxCell>
                <object label="Game" id="Ol54objo-PAGLz6OUJO4-14">
                    <mxCell style="swimlane;fontStyle=0;childLayout=stackLayout;horizontal=1;startSize=26;horizontalStack=0;resizeParent=1;resizeParentMax=0;resizeLast=0;collapsible=1;marginBottom=0;fillColor=#FFFFFF;" parent="1" vertex="1">
                        <mxGeometry x="490" y="320" width="190" height="130" as="geometry">
                            <mxRectangle x="490" y="320" width="70" height="26" as="alternateBounds"/>
                        </mxGeometry>
                    </mxCell>
                </object>
                <mxCell id="Ol54objo-PAGLz6OUJO4-15" value="+ Theme: string" style="text;strokeColor=none;align=left;verticalAlign=top;spacingLeft=4;spacingRight=4;overflow=hidden;rotatable=0;points=[[0,0.5],[1,0.5]];portConstraint=eastwest;fillColor=#FFFFFF;" parent="Ol54objo-PAGLz6OUJO4-14" vertex="1">
                    <mxGeometry y="26" width="190" height="26" as="geometry"/>
                </mxCell>
                <mxCell id="Ol54objo-PAGLz6OUJO4-16" value="+ Estimate: map[*User]*Card" style="text;strokeColor=none;align=left;verticalAlign=top;spacingLeft=4;spacingRight=4;overflow=hidden;rotatable=0;points=[[0,0.5],[1,0.5]];portConstraint=eastwest;fillColor=#FFFFFF;" parent="Ol54objo-PAGLz6OUJO4-14" vertex="1">
                    <mxGeometry y="52" width="190" height="26" as="geometry"/>
                </mxCell>
                <mxCell id="Ol54objo-PAGLz6OUJO4-17" value="+ Started: bool" style="text;strokeColor=none;align=left;verticalAlign=top;spacingLeft=4;spacingRight=4;overflow=hidden;rotatable=0;points=[[0,0.5],[1,0.5]];portConstraint=eastwest;fillColor=#FFFFFF;" parent="Ol54objo-PAGLz6OUJO4-14" vertex="1">
                    <mxGeometry y="78" width="190" height="26" as="geometry"/>
                </mxCell>
                <mxCell id="Ol54objo-PAGLz6OUJO4-23" value="+ Finished: bool" style="text;strokeColor=none;align=left;verticalAlign=top;spacingLeft=4;spacingRight=4;overflow=hidden;rotatable=0;points=[[0,0.5],[1,0.5]];portConstraint=eastwest;fillColor=#FFFFFF;" parent="Ol54objo-PAGLz6OUJO4-14" vertex="1">
                    <mxGeometry y="104" width="190" height="26" as="geometry"/>
                </mxCell>
                <mxCell id="Ol54objo-PAGLz6OUJO4-18" value="Card" style="swimlane;fontStyle=0;childLayout=stackLayout;horizontal=1;startSize=26;horizontalStack=0;resizeParent=1;resizeParentMax=0;resizeLast=0;collapsible=1;marginBottom=0;fillColor=#FFFFFF;" parent="1" vertex="1">
                    <mxGeometry x="515" y="540" width="140" height="78" as="geometry"/>
                </mxCell>
                <mxCell id="Ol54objo-PAGLz6OUJO4-19" value="+ Value: int" style="text;strokeColor=none;align=left;verticalAlign=top;spacingLeft=4;spacingRight=4;overflow=hidden;rotatable=0;points=[[0,0.5],[1,0.5]];portConstraint=eastwest;fillColor=#FFFFFF;" parent="Ol54objo-PAGLz6OUJO4-18" vertex="1">
                    <mxGeometry y="26" width="140" height="26" as="geometry"/>
                </mxCell>
                <mxCell id="Ol54objo-PAGLz6OUJO4-20" value="+ Name: String" style="text;strokeColor=none;align=left;verticalAlign=top;spacingLeft=4;spacingRight=4;overflow=hidden;rotatable=0;points=[[0,0.5],[1,0.5]];portConstraint=eastwest;fillColor=#FFFFFF;" parent="Ol54objo-PAGLz6OUJO4-18" vertex="1">
                    <mxGeometry y="52" width="140" height="26" as="geometry"/>
                </mxCell>
                <mxCell id="Ol54objo-PAGLz6OUJO4-24" value="Message" style="swimlane;fontStyle=0;childLayout=stackLayout;horizontal=1;startSize=26;horizontalStack=0;resizeParent=1;resizeParentMax=0;resizeLast=0;collapsible=1;marginBottom=0;fillColor=#FFFFFF;" parent="1" vertex="1">
                    <mxGeometry x="880" y="360" width="140" height="130" as="geometry"/>
                </mxCell>
                <mxCell id="Ol54objo-PAGLz6OUJO4-25" value="+ UserID: uint" style="text;strokeColor=none;align=left;verticalAlign=top;spacingLeft=4;spacingRight=4;overflow=hidden;rotatable=0;points=[[0,0.5],[1,0.5]];portConstraint=eastwest;fillColor=#FFFFFF;" parent="Ol54objo-PAGLz6OUJO4-24" vertex="1">
                    <mxGeometry y="26" width="140" height="26" as="geometry"/>
                </mxCell>
                <mxCell id="Ol54objo-PAGLz6OUJO4-26" value="+ RoomID: uint" style="text;strokeColor=none;align=left;verticalAlign=top;spacingLeft=4;spacingRight=4;overflow=hidden;rotatable=0;points=[[0,0.5],[1,0.5]];portConstraint=eastwest;fillColor=#FFFFFF;" parent="Ol54objo-PAGLz6OUJO4-24" vertex="1">
                    <mxGeometry y="52" width="140" height="26" as="geometry"/>
                </mxCell>
                <mxCell id="Ol54objo-PAGLz6OUJO4-27" value="+ Type: uint" style="text;strokeColor=none;align=left;verticalAlign=top;spacingLeft=4;spacingRight=4;overflow=hidden;rotatable=0;points=[[0,0.5],[1,0.5]];portConstraint=eastwest;fillColor=#FFFFFF;" parent="Ol54objo-PAGLz6OUJO4-24" vertex="1">
                    <mxGeometry y="78" width="140" height="26" as="geometry"/>
                </mxCell>
                <mxCell id="v_Ceavz3RcsRpmkH0pfm-47" value="+ Body: string" style="text;strokeColor=none;align=left;verticalAlign=top;spacingLeft=4;spacingRight=4;overflow=hidden;rotatable=0;points=[[0,0.5],[1,0.5]];portConstraint=eastwest;fillColor=#FFFFFF;" parent="Ol54objo-PAGLz6OUJO4-24" vertex="1">
                    <mxGeometry y="104" width="140" height="26" as="geometry"/>
                </mxCell>
                <mxCell id="v_Ceavz3RcsRpmkH0pfm-11" value="Message Telegram" style="swimlane;fontStyle=0;childLayout=stackLayout;horizontal=1;startSize=26;horizontalStack=0;resizeParent=1;resizeParentMax=0;resizeLast=0;collapsible=1;marginBottom=0;fillColor=#FFFFFF;" parent="1" vertex="1">
                    <mxGeometry x="880" y="80" width="140" height="78" as="geometry"/>
                </mxCell>
                <mxCell id="v_Ceavz3RcsRpmkH0pfm-12" value="+ UserID: uint" style="text;strokeColor=none;align=left;verticalAlign=top;spacingLeft=4;spacingRight=4;overflow=hidden;rotatable=0;points=[[0,0.5],[1,0.5]];portConstraint=eastwest;fillColor=#FFFFFF;" parent="v_Ceavz3RcsRpmkH0pfm-11" vertex="1">
                    <mxGeometry y="26" width="140" height="26" as="geometry"/>
                </mxCell>
                <mxCell id="v_Ceavz3RcsRpmkH0pfm-14" value="+ Body: string" style="text;strokeColor=none;align=left;verticalAlign=top;spacingLeft=4;spacingRight=4;overflow=hidden;rotatable=0;points=[[0,0.5],[1,0.5]];portConstraint=eastwest;fillColor=#FFFFFF;" parent="v_Ceavz3RcsRpmkH0pfm-11" vertex="1">
                    <mxGeometry y="52" width="140" height="26" as="geometry"/>
                </mxCell>
                <mxCell id="v_Ceavz3RcsRpmkH0pfm-15" value="«Connector»&lt;br&gt;&lt;b&gt;Component&lt;/b&gt;" style="html=1;dropTarget=0;" parent="1" vertex="1">
                    <mxGeometry x="860" y="220" width="180" height="90" as="geometry"/>
                </mxCell>
                <mxCell id="v_Ceavz3RcsRpmkH0pfm-16" value="" style="shape=module;jettyWidth=8;jettyHeight=4;" parent="v_Ceavz3RcsRpmkH0pfm-15" vertex="1">
                    <mxGeometry x="1" width="20" height="20" relative="1" as="geometry">
                        <mxPoint x="-27" y="7" as="offset"/>
                    </mxGeometry>
                </mxCell>
                <mxCell id="v_Ceavz3RcsRpmkH0pfm-17" value="" style="endArrow=classic;html=1;rounded=0;" parent="1" source="v_Ceavz3RcsRpmkH0pfm-11" target="v_Ceavz3RcsRpmkH0pfm-15" edge="1">
                    <mxGeometry width="50" height="50" relative="1" as="geometry">
                        <mxPoint x="440" y="410" as="sourcePoint"/>
                        <mxPoint x="490" y="360" as="targetPoint"/>
                    </mxGeometry>
                </mxCell>
                <mxCell id="v_Ceavz3RcsRpmkH0pfm-18" value="" style="endArrow=classic;html=1;rounded=0;" parent="1" source="v_Ceavz3RcsRpmkH0pfm-15" target="Ol54objo-PAGLz6OUJO4-24" edge="1">
                    <mxGeometry width="50" height="50" relative="1" as="geometry">
                        <mxPoint x="440" y="410" as="sourcePoint"/>
                        <mxPoint x="490" y="360" as="targetPoint"/>
                    </mxGeometry>
                </mxCell>
                <mxCell id="v_Ceavz3RcsRpmkH0pfm-54" style="edgeStyle=elbowEdgeStyle;rounded=0;orthogonalLoop=1;jettySize=auto;elbow=vertical;html=1;exitX=0.5;exitY=1;exitDx=0;exitDy=0;endArrow=none;endFill=0;" parent="1" source="v_Ceavz3RcsRpmkH0pfm-23" edge="1">
                    <mxGeometry relative="1" as="geometry">
                        <mxPoint x="950" y="670" as="targetPoint"/>
                    </mxGeometry>
                </mxCell>
                <mxCell id="v_Ceavz3RcsRpmkH0pfm-23" value="«Controller»&lt;br&gt;&lt;b&gt;Component&lt;/b&gt;" style="html=1;dropTarget=0;" parent="1" vertex="1">
                    <mxGeometry x="860" y="540" width="180" height="90" as="geometry"/>
                </mxCell>
                <mxCell id="v_Ceavz3RcsRpmkH0pfm-24" value="" style="shape=module;jettyWidth=8;jettyHeight=4;" parent="v_Ceavz3RcsRpmkH0pfm-23" vertex="1">
                    <mxGeometry x="1" width="20" height="20" relative="1" as="geometry">
                        <mxPoint x="-27" y="7" as="offset"/>
                    </mxGeometry>
                </mxCell>
                <mxCell id="v_Ceavz3RcsRpmkH0pfm-25" value="" style="endArrow=classic;html=1;rounded=0;" parent="1" source="Ol54objo-PAGLz6OUJO4-24" target="v_Ceavz3RcsRpmkH0pfm-23" edge="1">
                    <mxGeometry width="50" height="50" relative="1" as="geometry">
                        <mxPoint x="440" y="410" as="sourcePoint"/>
                        <mxPoint x="490" y="360" as="targetPoint"/>
                    </mxGeometry>
                </mxCell>
                <mxCell id="v_Ceavz3RcsRpmkH0pfm-33" style="edgeStyle=elbowEdgeStyle;rounded=0;orthogonalLoop=1;jettySize=auto;elbow=vertical;html=1;exitX=1;exitY=0.25;exitDx=0;exitDy=0;" parent="1" edge="1">
                    <mxGeometry relative="1" as="geometry">
                        <mxPoint x="1110" y="720.5" as="sourcePoint"/>
                        <mxPoint x="1110" y="720.3333333333335" as="targetPoint"/>
                    </mxGeometry>
                </mxCell>
                <mxCell id="v_Ceavz3RcsRpmkH0pfm-36" value="" style="endArrow=diamondThin;endFill=0;endSize=24;html=1;rounded=0;elbow=vertical;" parent="1" source="Ol54objo-PAGLz6OUJO4-14" target="Ol54objo-PAGLz6OUJO4-10" edge="1">
                    <mxGeometry width="160" relative="1" as="geometry">
                        <mxPoint x="710" y="390" as="sourcePoint"/>
                        <mxPoint x="870" y="390" as="targetPoint"/>
                    </mxGeometry>
                </mxCell>
                <mxCell id="v_Ceavz3RcsRpmkH0pfm-37" value="" style="endArrow=diamondThin;endFill=0;endSize=24;html=1;rounded=0;elbow=vertical;" parent="1" source="Ol54objo-PAGLz6OUJO4-2" target="Ol54objo-PAGLz6OUJO4-10" edge="1">
                    <mxGeometry width="160" relative="1" as="geometry">
                        <mxPoint x="710" y="390" as="sourcePoint"/>
                        <mxPoint x="870" y="390" as="targetPoint"/>
                    </mxGeometry>
                </mxCell>
                <mxCell id="v_Ceavz3RcsRpmkH0pfm-38" value="" style="endArrow=diamondThin;endFill=0;endSize=24;html=1;rounded=0;elbow=vertical;" parent="1" source="Ol54objo-PAGLz6OUJO4-6" target="Ol54objo-PAGLz6OUJO4-10" edge="1">
                    <mxGeometry width="160" relative="1" as="geometry">
                        <mxPoint x="710" y="390" as="sourcePoint"/>
                        <mxPoint x="870" y="390" as="targetPoint"/>
                    </mxGeometry>
                </mxCell>
                <mxCell id="v_Ceavz3RcsRpmkH0pfm-39" value="" style="endArrow=diamondThin;endFill=0;endSize=24;html=1;rounded=0;elbow=vertical;" parent="1" source="Ol54objo-PAGLz6OUJO4-18" target="Ol54objo-PAGLz6OUJO4-14" edge="1">
                    <mxGeometry width="160" relative="1" as="geometry">
                        <mxPoint x="710" y="390" as="sourcePoint"/>
                        <mxPoint x="870" y="390" as="targetPoint"/>
                    </mxGeometry>
                </mxCell>
                <mxCell id="v_Ceavz3RcsRpmkH0pfm-40" value="Игнор" style="ellipse;shape=cloud;whiteSpace=wrap;html=1;align=center;labelBackgroundColor=default;fillColor=#FFFFFF;" parent="1" vertex="1">
                    <mxGeometry x="1110" y="555" width="100" height="60" as="geometry"/>
                </mxCell>
                <mxCell id="v_Ceavz3RcsRpmkH0pfm-41" value="" style="endArrow=classic;html=1;rounded=0;elbow=vertical;" parent="1" source="v_Ceavz3RcsRpmkH0pfm-23" target="v_Ceavz3RcsRpmkH0pfm-40" edge="1">
                    <mxGeometry width="50" height="50" relative="1" as="geometry">
                        <mxPoint x="760" y="410" as="sourcePoint"/>
                        <mxPoint x="810" y="360" as="targetPoint"/>
                    </mxGeometry>
                </mxCell>
                <mxCell id="v_Ceavz3RcsRpmkH0pfm-42" value="Не распознанные&lt;br&gt;по типу" style="shape=callout;whiteSpace=wrap;html=1;perimeter=calloutPerimeter;labelBackgroundColor=default;fillColor=#FFFFFF;" parent="1" vertex="1">
                    <mxGeometry x="1100" y="480" width="120" height="80" as="geometry"/>
                </mxCell>
                <mxCell id="v_Ceavz3RcsRpmkH0pfm-43" value="Message Telegram" style="swimlane;fontStyle=0;childLayout=stackLayout;horizontal=1;startSize=26;horizontalStack=0;resizeParent=1;resizeParentMax=0;resizeLast=0;collapsible=1;marginBottom=0;fillColor=#FFFFFF;" parent="1" vertex="1">
                    <mxGeometry x="970" y="701" width="140" height="78" as="geometry"/>
                </mxCell>
                <mxCell id="v_Ceavz3RcsRpmkH0pfm-44" value="+ UserID: uint" style="text;strokeColor=none;align=left;verticalAlign=top;spacingLeft=4;spacingRight=4;overflow=hidden;rotatable=0;points=[[0,0.5],[1,0.5]];portConstraint=eastwest;fillColor=#FFFFFF;" parent="v_Ceavz3RcsRpmkH0pfm-43" vertex="1">
                    <mxGeometry y="26" width="140" height="26" as="geometry"/>
                </mxCell>
                <mxCell id="v_Ceavz3RcsRpmkH0pfm-45" value="+ Body: string" style="text;strokeColor=none;align=left;verticalAlign=top;spacingLeft=4;spacingRight=4;overflow=hidden;rotatable=0;points=[[0,0.5],[1,0.5]];portConstraint=eastwest;fillColor=#FFFFFF;" parent="v_Ceavz3RcsRpmkH0pfm-43" vertex="1">
                    <mxGeometry y="52" width="140" height="26" as="geometry"/>
                </mxCell>
                <mxCell id="v_Ceavz3RcsRpmkH0pfm-46" value="" style="endArrow=diamondThin;endFill=0;endSize=24;html=1;rounded=0;elbow=vertical;" parent="1" source="Ol54objo-PAGLz6OUJO4-2" target="Ol54objo-PAGLz6OUJO4-14" edge="1">
                    <mxGeometry width="160" relative="1" as="geometry">
                        <mxPoint x="560" y="310" as="sourcePoint"/>
                        <mxPoint x="720" y="310" as="targetPoint"/>
                    </mxGeometry>
                </mxCell>
                <mxCell id="v_Ceavz3RcsRpmkH0pfm-49" value="Cange state" style="rounded=1;whiteSpace=wrap;html=1;arcSize=40;fontColor=#000000;fillColor=#ffffc0;strokeColor=#ff0000;labelBackgroundColor=default;" parent="1" vertex="1">
                    <mxGeometry x="790" y="720" width="120" height="40" as="geometry"/>
                </mxCell>
                <mxCell id="v_Ceavz3RcsRpmkH0pfm-51" value="" style="endArrow=none;html=1;rounded=0;elbow=vertical;" parent="1" edge="1">
                    <mxGeometry width="50" height="50" relative="1" as="geometry">
                        <mxPoint x="850" y="670" as="sourcePoint"/>
                        <mxPoint x="1040" y="670" as="targetPoint"/>
                    </mxGeometry>
                </mxCell>
                <mxCell id="v_Ceavz3RcsRpmkH0pfm-55" value="" style="endArrow=classic;html=1;rounded=0;elbow=vertical;strokeWidth=1;" parent="1" target="v_Ceavz3RcsRpmkH0pfm-49" edge="1">
                    <mxGeometry width="50" height="50" relative="1" as="geometry">
                        <mxPoint x="850" y="670" as="sourcePoint"/>
                        <mxPoint x="770" y="530" as="targetPoint"/>
                    </mxGeometry>
                </mxCell>
                <mxCell id="v_Ceavz3RcsRpmkH0pfm-56" value="" style="endArrow=classic;html=1;rounded=0;elbow=vertical;" parent="1" target="v_Ceavz3RcsRpmkH0pfm-43" edge="1">
                    <mxGeometry width="50" height="50" relative="1" as="geometry">
                        <mxPoint x="1040" y="670" as="sourcePoint"/>
                        <mxPoint x="770" y="530" as="targetPoint"/>
                    </mxGeometry>
                </mxCell>
            </root>
        </mxGraphModel>
    </diagram>
</mxfile>